<mxfile host="app.diagrams.net" agent="Mozilla/5.0 (Windows NT 10.0; Win64; x64) AppleWebKit/537.36 (KHTML, like Gecko) Chrome/137.0.0.0 Safari/537.36" version="27.1.4">
  <diagram name="Page-1" id="YppAgKmHBsdK-q3D0ge3">
    <mxGraphModel dx="1281" dy="534" grid="1" gridSize="10" guides="1" tooltips="1" connect="1" arrows="1" fold="1" page="1" pageScale="1" pageWidth="2000" pageHeight="2000" math="0" shadow="0">
      <root>
        <mxCell id="0" />
        <mxCell id="1" parent="0" />
        <mxCell id="GSS0WRHJSl3Jgb3p2Y-e-32" style="edgeStyle=orthogonalEdgeStyle;rounded=0;orthogonalLoop=1;jettySize=auto;html=1;exitX=0.5;exitY=1;exitDx=0;exitDy=0;entryX=0.5;entryY=0;entryDx=0;entryDy=0;fillColor=light-dark(transparent,#3333FF);strokeColor=light-dark(#000000,#3333FF);" parent="1" source="GSS0WRHJSl3Jgb3p2Y-e-16" target="GSS0WRHJSl3Jgb3p2Y-e-29" edge="1">
          <mxGeometry relative="1" as="geometry" />
        </mxCell>
        <mxCell id="GSS0WRHJSl3Jgb3p2Y-e-16" value="" style="rounded=0;whiteSpace=wrap;html=1;" parent="1" vertex="1">
          <mxGeometry x="589" y="490" width="280" height="140" as="geometry" />
        </mxCell>
        <mxCell id="GSS0WRHJSl3Jgb3p2Y-e-17" value="&lt;span style=&quot;text-align: center; text-wrap-mode: nowrap;&quot;&gt;&lt;font style=&quot;color: light-dark(rgb(51, 51, 255), rgb(51, 51, 255));&quot;&gt;Bibliotecă Nativă (Backend - C/C++)&lt;/font&gt;&lt;/span&gt;" style="text;whiteSpace=wrap;html=1;" parent="1" vertex="1">
          <mxGeometry x="629" y="460" width="230" height="40" as="geometry" />
        </mxCell>
        <mxCell id="GSS0WRHJSl3Jgb3p2Y-e-18" value="" style="endArrow=none;dashed=1;html=1;dashPattern=1 3;strokeWidth=2;rounded=0;exitX=0;exitY=0;exitDx=0;exitDy=0;" parent="1" source="GSS0WRHJSl3Jgb3p2Y-e-16" edge="1">
          <mxGeometry width="50" height="50" relative="1" as="geometry">
            <mxPoint x="589" y="480" as="sourcePoint" />
            <mxPoint x="589" y="450" as="targetPoint" />
          </mxGeometry>
        </mxCell>
        <mxCell id="GSS0WRHJSl3Jgb3p2Y-e-20" value="" style="endArrow=none;dashed=1;html=1;dashPattern=1 3;strokeWidth=2;rounded=0;exitX=1;exitY=0;exitDx=0;exitDy=0;" parent="1" source="GSS0WRHJSl3Jgb3p2Y-e-16" edge="1">
          <mxGeometry width="50" height="50" relative="1" as="geometry">
            <mxPoint x="839" y="490" as="sourcePoint" />
            <mxPoint x="869" y="450" as="targetPoint" />
          </mxGeometry>
        </mxCell>
        <mxCell id="GSS0WRHJSl3Jgb3p2Y-e-23" value="" style="endArrow=none;dashed=1;html=1;rounded=0;" parent="1" edge="1">
          <mxGeometry width="50" height="50" relative="1" as="geometry">
            <mxPoint x="589" y="450" as="sourcePoint" />
            <mxPoint x="869" y="450" as="targetPoint" />
          </mxGeometry>
        </mxCell>
        <mxCell id="GSS0WRHJSl3Jgb3p2Y-e-31" style="edgeStyle=orthogonalEdgeStyle;rounded=0;orthogonalLoop=1;jettySize=auto;html=1;exitX=0.5;exitY=1;exitDx=0;exitDy=0;strokeColor=light-dark(#000000,#3333FF);" parent="1" source="GSS0WRHJSl3Jgb3p2Y-e-24" edge="1">
          <mxGeometry relative="1" as="geometry">
            <mxPoint x="730" y="450" as="targetPoint" />
          </mxGeometry>
        </mxCell>
        <mxCell id="GSS0WRHJSl3Jgb3p2Y-e-24" value="" style="rounded=0;whiteSpace=wrap;html=1;" parent="1" vertex="1">
          <mxGeometry x="590" y="200" width="280" height="160" as="geometry" />
        </mxCell>
        <mxCell id="GSS0WRHJSl3Jgb3p2Y-e-25" value="&lt;span style=&quot;text-align: center; text-wrap-mode: nowrap;&quot;&gt;&lt;font style=&quot;color: light-dark(rgb(51, 51, 255), rgb(51, 51, 255));&quot;&gt;Aplicatie Desktop&amp;nbsp;&amp;nbsp;(Frontend - C#)&amp;nbsp;&lt;/font&gt;&lt;/span&gt;" style="text;whiteSpace=wrap;html=1;" parent="1" vertex="1">
          <mxGeometry x="630" y="170" width="230" height="40" as="geometry" />
        </mxCell>
        <mxCell id="GSS0WRHJSl3Jgb3p2Y-e-26" value="" style="endArrow=none;dashed=1;html=1;dashPattern=1 3;strokeWidth=2;rounded=0;exitX=0;exitY=0;exitDx=0;exitDy=0;" parent="1" source="GSS0WRHJSl3Jgb3p2Y-e-24" edge="1">
          <mxGeometry width="50" height="50" relative="1" as="geometry">
            <mxPoint x="590" y="190" as="sourcePoint" />
            <mxPoint x="590" y="160" as="targetPoint" />
          </mxGeometry>
        </mxCell>
        <mxCell id="GSS0WRHJSl3Jgb3p2Y-e-27" value="" style="endArrow=none;dashed=1;html=1;dashPattern=1 3;strokeWidth=2;rounded=0;exitX=1;exitY=0;exitDx=0;exitDy=0;" parent="1" source="GSS0WRHJSl3Jgb3p2Y-e-24" edge="1">
          <mxGeometry width="50" height="50" relative="1" as="geometry">
            <mxPoint x="840" y="200" as="sourcePoint" />
            <mxPoint x="870" y="160" as="targetPoint" />
          </mxGeometry>
        </mxCell>
        <mxCell id="GSS0WRHJSl3Jgb3p2Y-e-28" value="" style="endArrow=none;dashed=1;html=1;rounded=0;" parent="1" edge="1">
          <mxGeometry width="50" height="50" relative="1" as="geometry">
            <mxPoint x="590" y="160" as="sourcePoint" />
            <mxPoint x="870" y="160" as="targetPoint" />
          </mxGeometry>
        </mxCell>
        <mxCell id="GSS0WRHJSl3Jgb3p2Y-e-29" value="&lt;font style=&quot;&quot;&gt;Fișier rezultat (suport modificat)&lt;/font&gt;&lt;div&gt;&lt;font style=&quot;&quot;&gt;(Imagine/Audio cu informație ascunsă)&lt;/font&gt;&lt;/div&gt;" style="rounded=0;whiteSpace=wrap;html=1;dashed=1;" parent="1" vertex="1">
          <mxGeometry x="589" y="720" width="280" height="60" as="geometry" />
        </mxCell>
        <mxCell id="GSS0WRHJSl3Jgb3p2Y-e-38" value="- Interfață grafică pentru utilizator" style="text;strokeColor=none;fillColor=none;align=left;verticalAlign=middle;spacingLeft=4;spacingRight=4;overflow=hidden;points=[[0,0.5],[1,0.5]];portConstraint=eastwest;rotatable=0;whiteSpace=wrap;html=1;" parent="1" vertex="1">
          <mxGeometry x="600" y="210" width="210" height="30" as="geometry" />
        </mxCell>
        <mxCell id="GSS0WRHJSl3Jgb3p2Y-e-39" value="- Încărcare suporturi (imagini/audio)&amp;nbsp;" style="text;strokeColor=none;fillColor=none;align=left;verticalAlign=middle;spacingLeft=4;spacingRight=4;overflow=hidden;points=[[0,0.5],[1,0.5]];portConstraint=eastwest;rotatable=0;whiteSpace=wrap;html=1;" parent="1" vertex="1">
          <mxGeometry x="600" y="240" width="220" height="30" as="geometry" />
        </mxCell>
        <mxCell id="GSS0WRHJSl3Jgb3p2Y-e-41" value="- Gestionare erori și validare&amp;nbsp;" style="text;strokeColor=none;fillColor=none;align=left;verticalAlign=middle;spacingLeft=4;spacingRight=4;overflow=hidden;points=[[0,0.5],[1,0.5]];portConstraint=eastwest;rotatable=0;whiteSpace=wrap;html=1;" parent="1" vertex="1">
          <mxGeometry x="600" y="270" width="220" height="25" as="geometry" />
        </mxCell>
        <mxCell id="GSS0WRHJSl3Jgb3p2Y-e-43" value="- Introducere mesaj/fișier&amp;nbsp; &amp;nbsp;" style="text;strokeColor=none;fillColor=none;align=left;verticalAlign=middle;spacingLeft=4;spacingRight=4;overflow=hidden;points=[[0,0.5],[1,0.5]];portConstraint=eastwest;rotatable=0;whiteSpace=wrap;html=1;" parent="1" vertex="1">
          <mxGeometry x="600" y="300" width="220" height="25" as="geometry" />
        </mxCell>
        <mxCell id="GSS0WRHJSl3Jgb3p2Y-e-44" value="- Salvare fișier rezultat&amp;nbsp;" style="text;strokeColor=none;fillColor=none;align=left;verticalAlign=middle;spacingLeft=4;spacingRight=4;overflow=hidden;points=[[0,0.5],[1,0.5]];portConstraint=eastwest;rotatable=0;whiteSpace=wrap;html=1;" parent="1" vertex="1">
          <mxGeometry x="600" y="330" width="220" height="25" as="geometry" />
        </mxCell>
        <mxCell id="GSS0WRHJSl3Jgb3p2Y-e-45" value="- Ascundere/Extragere biți (LSB)" style="text;strokeColor=none;fillColor=none;align=left;verticalAlign=middle;spacingLeft=4;spacingRight=4;overflow=hidden;points=[[0,0.5],[1,0.5]];portConstraint=eastwest;rotatable=0;whiteSpace=wrap;html=1;" parent="1" vertex="1">
          <mxGeometry x="600" y="500" width="210" height="30" as="geometry" />
        </mxCell>
        <mxCell id="GSS0WRHJSl3Jgb3p2Y-e-46" value="- Manipulare eficientă a datelor&amp;nbsp;&amp;nbsp;" style="text;strokeColor=none;fillColor=none;align=left;verticalAlign=middle;spacingLeft=4;spacingRight=4;overflow=hidden;points=[[0,0.5],[1,0.5]];portConstraint=eastwest;rotatable=0;whiteSpace=wrap;html=1;" parent="1" vertex="1">
          <mxGeometry x="600" y="530" width="210" height="30" as="geometry" />
        </mxCell>
        <mxCell id="GSS0WRHJSl3Jgb3p2Y-e-47" value="- Performanță optimă&amp;nbsp;" style="text;strokeColor=none;fillColor=none;align=left;verticalAlign=middle;spacingLeft=4;spacingRight=4;overflow=hidden;points=[[0,0.5],[1,0.5]];portConstraint=eastwest;rotatable=0;whiteSpace=wrap;html=1;" parent="1" vertex="1">
          <mxGeometry x="600" y="560" width="210" height="30" as="geometry" />
        </mxCell>
        <mxCell id="GSS0WRHJSl3Jgb3p2Y-e-48" value="- Consistență și siguranță&amp;nbsp; &amp;nbsp;" style="text;strokeColor=none;fillColor=none;align=left;verticalAlign=middle;spacingLeft=4;spacingRight=4;overflow=hidden;points=[[0,0.5],[1,0.5]];portConstraint=eastwest;rotatable=0;whiteSpace=wrap;html=1;" parent="1" vertex="1">
          <mxGeometry x="600" y="590" width="210" height="30" as="geometry" />
        </mxCell>
      </root>
    </mxGraphModel>
  </diagram>
</mxfile>
